<?xml version="1.0" encoding="UTF-8" standalone="no"?>
<!DOCTYPE svg PUBLIC "-//W3C//DTD SVG 1.1//EN" "http://www.w3.org/Graphics/SVG/1.1/DTD/svg11.dtd">
<svg width="100%" height="100%" viewBox="0 0 490 160" version="1.1" xmlns="http://www.w3.org/2000/svg" xmlns:xlink="http://www.w3.org/1999/xlink" xml:space="preserve" xmlns:serif="http://www.serif.com/" style="fill-rule:evenodd;clip-rule:evenodd;stroke-linejoin:round;stroke-miterlimit:1.41421;"><path id="Shape_2_copy_9" d="M92.991,2.868l-15.025,9.745l-2.748,31.261l20.95,-23.414l-3.177,-17.592Z" style="fill:#fff;"/><path id="Shape_2" d="M52.881,20.611l1.746,31.341l14.714,10.183l3.741,-17.499l-20.201,-24.025Z" style="fill:#fff;"/><path id="Shape_2_copy" d="M76.199,44.478l3.179,17.593l15.025,-9.746l2.747,-31.26l-20.951,23.413Z" style="fill:#fff;"/><path id="Shape_2_copy_2" d="M96.74,54.377l-10.176,14.667l17.498,3.736l24.015,-20.133l-31.337,1.73Z" style="fill:#fff;"/><path id="Shape_2_copy_3" d="M104.229,75.995l-17.59,3.182l9.741,15.033l31.258,2.744l-23.409,-20.959Z" style="fill:#fff;"/><path id="Shape_2_copy_4" d="M94.327,96.547l-14.667,-10.175l-3.74,17.497l20.135,24.013l-1.728,-31.335Z" style="fill:#fff;"/><path id="Shape_2_copy_5" d="M69.637,86.551l-15.036,9.741l-2.743,31.26l20.961,-23.409l-3.182,-17.592Z" style="fill:#fff;"/><path id="Shape_2_copy_6" d="M44.832,75.723l-24.01,20.133l31.334,-1.722l10.173,-14.671l-17.497,-3.74Z" style="fill:#fff;"/><path id="Shape_2_copy_7" d="M52.519,54.298l-31.259,-2.743l23.408,20.967l17.592,-3.185l-9.741,-15.039Z" style="fill:#fff;"/><path id="Shape_2_copy_15" d="M20.661,52.519l-17.59,3.182l9.742,15.039l31.255,2.746l-23.407,-20.967Z" style="fill:#fff;"/><path id="Shape_2_copy_8" d="M51.769,20.859l-14.686,-10.193l-3.734,17.515l20.163,24.048l-1.743,-31.37Z" style="fill:#fff;"/><path id="Shape_2_copy_10" d="M120.508,33.174l-24.016,20.132l31.339,-1.726l10.177,-14.668l-17.5,-3.738Z" style="fill:#fff;"/><path id="Shape_2_copy_11" d="M136.084,77.766l-31.256,-2.746l23.407,20.965l17.592,-3.182l-9.743,-15.037Z" style="fill:#fff;"/><path id="Shape_2_copy_12" d="M95.395,96.297l1.726,31.335l14.671,10.175l3.737,-17.497l-20.134,-24.013Z" style="fill:#fff;"/><path id="Shape_2_copy_13" d="M52.715,128.042l3.183,17.593l15.037,-9.743l2.745,-31.261l-20.965,23.411Z" style="fill:#fff;"/><path id="Shape_2_copy_14" d="M21.067,96.926l-10.175,14.671l17.501,3.741l24.012,-20.135l-31.338,1.723Z" style="fill:#fff;"/><path id="Shape_2_copy_16" d="M29.161,115.82l21.714,11.477l2.636,-31.64l-24.35,20.163Z" style="fill:#fff;"/><path id="Shape_2_copy_17" d="M13.034,71.622l7.238,23.469l24.237,-20.508l-31.475,-2.961Z" style="fill:#fff;"/><path id="Shape_2_copy_18" d="M32.883,28.959l-11.441,21.68l31.615,2.672l-20.174,-24.352Z" style="fill:#fff;"/><path id="Shape_2_copy_19" d="M53.638,20.054l20.483,24.262l2.944,-31.496l-23.427,7.234Z" style="fill:#fff;"/><path id="Shape_2_copy_20" d="M98.07,21.242l-2.672,31.628l24.345,-20.183l-21.673,-11.445Z" style="fill:#fff;"/><path id="Shape_2_copy_21" d="M128.651,53.444l-24.261,20.482l31.494,2.941l-7.233,-23.423Z" style="fill:#fff;"/><path id="Shape_2_copy_22" d="M95.832,95.207l20.182,24.343l11.451,-21.675l-31.633,-2.668Z" style="fill:#fff;"/><path id="Shape_2_copy_23" d="M74.778,104.193l-2.941,31.492l23.427,-7.231l-20.486,-24.261Z" style="fill:#fff;"/><g><path d="M195.766,101.681c-3.074,0 -5.901,-0.573 -8.482,-1.718c-2.58,-1.145 -4.806,-2.74 -6.676,-4.785c-1.87,-2.044 -3.328,-4.472 -4.371,-7.285c-1.044,-2.813 -1.566,-5.901 -1.566,-9.264l0,-1.871c0,-3.624 0.543,-6.908 1.631,-9.851c1.087,-2.943 2.559,-5.451 4.415,-7.525c1.855,-2.073 3.994,-3.675 6.415,-4.806c2.421,-1.131 4.98,-1.696 7.677,-1.696c2.986,0 5.64,0.536 7.959,1.609c2.32,1.073 4.27,2.566 5.85,4.48c1.581,1.914 2.777,4.19 3.589,6.829c0.812,2.638 1.218,5.524 1.218,8.655l0,3.175l-33.578,0l0,1.001c0,2.58 0.391,5.009 1.174,7.285c0.783,2.276 1.885,4.255 3.306,5.937c1.42,1.682 3.117,3.009 5.088,3.98c1.972,0.971 4.161,1.457 6.568,1.457c2.784,0 5.241,-0.507 7.373,-1.522c2.131,-1.015 4.066,-2.639 5.806,-4.872l3.262,2.479c-0.783,1.131 -1.689,2.204 -2.718,3.219c-1.03,1.015 -2.226,1.899 -3.588,2.653c-1.363,0.754 -2.9,1.349 -4.611,1.784c-1.711,0.434 -3.625,0.652 -5.741,0.652Zm-0.957,-44.365c-1.972,0 -3.799,0.377 -5.48,1.131c-1.682,0.754 -3.168,1.827 -4.459,3.219c-1.29,1.392 -2.348,3.066 -3.175,5.023c-0.826,1.958 -1.384,4.125 -1.674,6.503l28.228,0l0,-0.566c-0.058,-1.971 -0.377,-3.878 -0.957,-5.719c-0.58,-1.841 -1.428,-3.472 -2.545,-4.893c-1.116,-1.421 -2.501,-2.559 -4.153,-3.415c-1.653,-0.855 -3.581,-1.283 -5.785,-1.283Z" style="fill:#fff;fill-rule:nonzero;"/><path d="M220.688,76.584c0,-3.421 0.5,-6.582 1.501,-9.481c1,-2.9 2.414,-5.401 4.241,-7.503c1.826,-2.103 4.03,-3.748 6.611,-4.937c2.58,-1.189 5.451,-1.783 8.612,-1.783c3.218,0 6.125,0.594 8.72,1.783c2.596,1.189 4.807,2.834 6.633,4.937c1.827,2.102 3.234,4.603 4.219,7.503c0.986,2.899 1.479,6.06 1.479,9.481l0,1.436c0,3.421 -0.493,6.582 -1.479,9.482c-0.985,2.899 -2.392,5.4 -4.219,7.503c-1.826,2.102 -4.03,3.74 -6.611,4.914c-2.58,1.175 -5.466,1.762 -8.655,1.762c-3.19,0 -6.075,-0.587 -8.656,-1.762c-2.58,-1.174 -4.791,-2.812 -6.633,-4.914c-1.841,-2.103 -3.262,-4.604 -4.262,-7.503c-1.001,-2.9 -1.501,-6.061 -1.501,-9.482l0,-1.436Zm5.22,1.436c0,2.58 0.348,5.038 1.044,7.372c0.695,2.334 1.71,4.379 3.044,6.133c1.334,1.754 2.987,3.153 4.959,4.197c1.971,1.044 4.233,1.566 6.785,1.566c2.551,0 4.806,-0.522 6.763,-1.566c1.957,-1.044 3.603,-2.443 4.937,-4.197c1.334,-1.754 2.349,-3.799 3.044,-6.133c0.696,-2.334 1.044,-4.792 1.044,-7.372l0,-1.436c0,-2.522 -0.348,-4.951 -1.044,-7.285c-0.695,-2.334 -1.71,-4.386 -3.044,-6.154c-1.334,-1.769 -2.994,-3.183 -4.98,-4.241c-1.987,-1.059 -4.256,-1.588 -6.807,-1.588c-2.523,0 -4.763,0.529 -6.72,1.588c-1.957,1.058 -3.603,2.472 -4.937,4.241c-1.334,1.768 -2.349,3.82 -3.044,6.154c-0.696,2.334 -1.044,4.763 -1.044,7.285l0,1.436Z" style="fill:#fff;fill-rule:nonzero;"/><path d="M301.632,88.85c0,-0.957 -0.167,-1.914 -0.5,-2.871c-0.334,-0.957 -0.957,-1.863 -1.87,-2.718c-0.914,-0.855 -2.19,-1.653 -3.828,-2.392c-1.638,-0.74 -3.762,-1.385 -6.372,-1.936c-2.61,-0.551 -4.937,-1.189 -6.981,-1.914c-2.044,-0.725 -3.769,-1.602 -5.176,-2.631c-1.406,-1.029 -2.472,-2.255 -3.197,-3.675c-0.724,-1.421 -1.087,-3.088 -1.087,-5.002c0,-1.74 0.384,-3.393 1.153,-4.959c0.768,-1.565 1.87,-2.928 3.305,-4.088c1.436,-1.16 3.175,-2.081 5.22,-2.762c2.044,-0.682 4.342,-1.022 6.894,-1.022c2.725,0 5.168,0.355 7.328,1.065c2.161,0.711 3.988,1.697 5.481,2.958c1.493,1.261 2.631,2.747 3.414,4.458c0.783,1.711 1.175,3.567 1.175,5.568l-5.22,0c0,-1.218 -0.268,-2.407 -0.805,-3.567c-0.536,-1.16 -1.319,-2.182 -2.348,-3.066c-1.03,-0.885 -2.305,-1.602 -3.828,-2.153c-1.522,-0.551 -3.255,-0.827 -5.197,-0.827c-2.03,0 -3.763,0.247 -5.198,0.74c-1.435,0.493 -2.61,1.131 -3.523,1.913c-0.914,0.783 -1.58,1.66 -2.001,2.632c-0.42,0.971 -0.631,1.95 -0.631,2.936c0,1.044 0.16,1.993 0.479,2.849c0.319,0.855 0.935,1.652 1.848,2.392c0.914,0.739 2.19,1.421 3.828,2.044c1.638,0.624 3.777,1.24 6.415,1.849c2.842,0.667 5.292,1.406 7.351,2.218c2.059,0.812 3.762,1.776 5.111,2.892c1.348,1.117 2.348,2.393 3.001,3.828c0.652,1.435 0.978,3.095 0.978,4.98c0,1.943 -0.405,3.719 -1.217,5.328c-0.812,1.609 -1.972,2.987 -3.48,4.132c-1.508,1.146 -3.335,2.037 -5.48,2.675c-2.146,0.638 -4.538,0.957 -7.177,0.957c-2.987,0 -5.625,-0.384 -7.916,-1.153c-2.291,-0.768 -4.219,-1.805 -5.785,-3.11c-1.566,-1.304 -2.747,-2.805 -3.545,-4.501c-0.797,-1.697 -1.196,-3.458 -1.196,-5.285l5.22,0c0.116,1.856 0.594,3.4 1.435,4.632c0.841,1.233 1.885,2.219 3.132,2.958c1.246,0.739 2.631,1.269 4.153,1.588c1.523,0.319 3.023,0.478 4.502,0.478c1.972,0 3.712,-0.232 5.219,-0.696c1.508,-0.464 2.777,-1.087 3.806,-1.87c1.03,-0.783 1.805,-1.682 2.327,-2.697c0.522,-1.015 0.783,-2.073 0.783,-3.175Z" style="fill:#fff;fill-rule:nonzero;"/><path d="M317.421,100.811l0,-63.328l19.485,0c4.263,0 8.17,0.732 11.722,2.196c3.552,1.464 6.597,3.523 9.134,6.176c2.537,2.654 4.516,5.836 5.937,9.547c1.421,3.712 2.131,7.83 2.131,12.353l0,2.871c0,4.523 -0.703,8.633 -2.109,12.33c-1.406,3.698 -3.393,6.873 -5.959,9.526c-2.566,2.653 -5.632,4.705 -9.199,6.154c-3.567,1.45 -7.496,2.175 -11.787,2.175l-19.355,0Zm13.048,-52.759l0,42.277l6.307,0c5.161,0 9.09,-1.704 11.787,-5.111c2.697,-3.407 4.045,-8.271 4.045,-14.592l0,-2.958c0,-6.437 -1.334,-11.316 -4.001,-14.636c-2.668,-3.32 -6.568,-4.98 -11.701,-4.98l-6.437,0Z" style="fill:#fff;fill-rule:nonzero;"/><path d="M410.152,87.763l-22.879,0l-4.349,13.048l-13.875,0l23.574,-63.328l12.092,0l23.705,63.328l-13.875,0l-4.393,-13.048Zm-19.356,-10.57l15.833,0l-7.96,-23.704l-7.873,23.704Z" style="fill:#fff;fill-rule:nonzero;"/><path d="M483.136,79.716c-0.232,3.219 -0.957,6.176 -2.175,8.873c-1.218,2.697 -2.899,5.009 -5.045,6.937c-2.146,1.929 -4.748,3.437 -7.807,4.524c-3.06,1.087 -6.546,1.631 -10.461,1.631c-4.059,0 -7.706,-0.703 -10.939,-2.11c-3.233,-1.406 -5.973,-3.428 -8.22,-6.067c-2.248,-2.639 -3.973,-5.836 -5.176,-9.591c-1.204,-3.755 -1.805,-7.966 -1.805,-12.635l0,-4.175c0,-4.669 0.623,-8.888 1.87,-12.657c1.247,-3.77 3.008,-6.974 5.285,-9.613c2.276,-2.638 5.038,-4.668 8.285,-6.089c3.248,-1.421 6.872,-2.131 10.874,-2.131c3.944,0 7.43,0.558 10.461,1.674c3.03,1.117 5.603,2.668 7.72,4.654c2.117,1.986 3.769,4.35 4.958,7.09c1.189,2.74 1.943,5.719 2.262,8.938l-13.048,0c-0.145,-1.885 -0.472,-3.552 -0.979,-5.002c-0.508,-1.45 -1.24,-2.668 -2.197,-3.653c-0.956,-0.986 -2.189,-1.733 -3.697,-2.24c-1.507,-0.508 -3.334,-0.762 -5.48,-0.762c-4.407,0 -7.691,1.603 -9.852,4.807c-2.16,3.204 -3.24,8.169 -3.24,14.897l0,4.262c0,3.277 0.239,6.147 0.718,8.612c0.478,2.465 1.232,4.524 2.261,6.176c1.03,1.653 2.364,2.893 4.002,3.719c1.638,0.827 3.617,1.24 5.937,1.24c2.059,0 3.835,-0.232 5.328,-0.696c1.493,-0.464 2.74,-1.167 3.741,-2.11c1,-0.942 1.776,-2.124 2.327,-3.545c0.551,-1.42 0.899,-3.073 1.044,-4.958l13.048,0Z" style="fill:#fff;fill-rule:nonzero;"/></g></svg>