<?xml version="1.0" encoding="utf-8"?>
<!-- Generator: Adobe Illustrator 16.0.0, SVG Export Plug-In . SVG Version: 6.00 Build 0)  -->
<!DOCTYPE svg PUBLIC "-//W3C//DTD SVG 1.1//EN" "http://www.w3.org/Graphics/SVG/1.1/DTD/svg11.dtd">
<svg version="1.1" id="Layer_1" xmlns="http://www.w3.org/2000/svg" xmlns:xlink="http://www.w3.org/1999/xlink" x="0px" y="0px"
	 width="98.139px" height="39.756px" viewBox="0 -0.706 98.139 39.756" enable-background="new 0 -0.706 98.139 39.756"
	 xml:space="preserve">
<g>
	<path fill="none" stroke="#66CCFF" stroke-width="3" stroke-miterlimit="10" d="M27.5,22.457c0,0.477-0.111,1.063-0.521,1.302
		l-11.369,6.72c-0.409,0.239-1.025,0.239-1.438,0L2.47,23.758C2.059,23.52,1.5,22.934,1.5,22.457V8.996
		c0-0.476,0.586-1.062,0.997-1.302l11.604-6.72c0.411-0.24,1.146-0.24,1.558,0l11.285,6.72C27.357,7.934,27.5,8.52,27.5,8.996
		V22.457z"/>
</g>
<g>
	<g>
		<g>
			<path fill="#66CCFF" d="M42.128,23.589c-0.55,0-1.051-0.44-1.111-0.979c-0.063-0.539-0.135-0.979-0.16-0.979
				s-0.381,0.305-0.788,0.676c0,0-1.798,1.639-4.015,1.639c-3.148,0-4.755-2.217-4.755-4.465c0-3.758,3.342-5.813,9.348-5.783l0,0
				c0-0.176-0.044-0.77-0.099-1.315c0,0-0.256-2.604-3.438-2.604c-1.443,0-2.953,0.45-4.047,1.156l-0.314-0.917
				c-0.181-0.521,0.086-1.126,0.59-1.348c0,0,2.23-0.979,4.189-0.979c4.756,0,5.91,3.244,5.91,6.359v4.813
				c0,0.551,0.013,1.449,0.023,2l0.125,1.732c0.06,0.547-0.343,0.992-0.895,0.992L42.128,23.589L42.128,23.589z M40.71,15.655
				c-3.083-0.063-6.584,0.481-6.584,3.501c0,1.83,1.222,2.697,2.666,2.697c2.021,0,3.309-1.285,3.758-2.603
				c0.098-0.289,0.098-0.289,0.098-0.289c0.035-0.336,0.063-1.062,0.063-1.609L40.71,15.655L40.71,15.655z"/>
		</g>
		<g>
			<path fill="#66CCFF" d="M58.085,23.01c-0.738,0.387-2.377,0.899-4.465,0.899c-4.688,0-7.741-3.181-7.741-7.935
				c0-4.786,3.274-8.255,8.352-8.255c1.67,0,3.146,0.417,3.918,0.803L57.79,9.748c-0.155,0.527-0.696,0.782-1.202,0.566
				c0,0-0.813-0.348-2.355-0.348c-3.563,0-5.493,2.635-5.493,5.879c0,3.596,2.313,5.813,5.396,5.813
				c1.606,0,2.546-0.391,2.546-0.391c0.508-0.209,1.022,0.059,1.146,0.594L58.085,23.01z"/>
		</g>
		<g opacity="0.8">
			<path fill="#66CCFF" d="M61.396,1.784c0-0.55,0.45-1,1-1h0.826c0.55,0,1,0.45,1,1V22.59c0,0.551-0.45,1-1,1h-0.826
				c-0.55,0-1-0.449-1-1V1.784z"/>
		</g>
		<g opacity="0.8">
			<path fill="#66CCFF" d="M72.124,3.675c0.03,0.964-0.674,1.733-1.799,1.733c-0.995,0-1.702-0.771-1.702-1.733
				c0-0.995,0.737-1.768,1.768-1.768C71.45,1.908,72.124,2.679,72.124,3.675z M69.977,23.589c-0.55,0-1-0.448-1-1V9.043
				c0-0.55,0.45-1,1-1h0.826c0.55,0,1,0.45,1,1v13.546c0,0.552-0.45,1-1,1H69.977L69.977,23.589z"/>
		</g>
		<g opacity="0.8">
			<path fill="#66CCFF" d="M77.782,23.589c-0.552,0-1-0.448-1-1V11.195c0-0.55-0.45-1-1-1h-0.187c-0.551,0-1-0.449-1-1V9.043
				c0-0.55,0.449-1,1-1h0.187c0.55,0,1-0.166,1-0.369c0-0.203,0.052-0.816,0.112-1.362c0,0,0.367-3.183,1.687-4.436
				c1.061-1.027,2.474-1.444,3.79-1.444c0.996,0,1.861,0.225,2.407,0.449L84.568,2.08c-0.096,0.542-0.598,0.834-1.114,0.649
				c0,0-0.055-0.02-0.855-0.02c-2.409,0-3.02,2.12-3.02,4.497l0,0c0,0.459,0.448,0.835,1,0.835h1.758c0.55,0,1,0.45,1,1v0.151
				c0,0.551-0.45,1-1,1h-1.758c-0.552,0-1,0.45-1,1v11.395c0,0.552-0.45,1-1,1L77.782,23.589L77.782,23.589z"/>
		</g>
		<g opacity="0.8">
			<path fill="#66CCFF" d="M85.901,8.043c0.552,0,1.156,0.422,1.35,0.938l2.709,7.312c0.189,0.517,0.486,1.364,0.659,1.889
				c0,0,0.427,1.298,0.685,2.229l0,0c0.035,0,0.188-0.435,0.341-0.962c0,0,0.334-1.158,0.72-2.282l2.765-8.176
				c0.176-0.521,0.771-0.946,1.318-0.946h0.987c0.55,0,0.839,0.42,0.645,0.935l-3.524,9.213c-0.195,0.515-0.531,1.35-0.745,1.854
				c0,0-3.018,7.143-4.942,8.813c-1.382,1.222-2.764,1.703-3.47,1.83l-0.422-1.418c-0.157-0.525,0.131-1.129,0.64-1.338
				c0,0,0.715-0.295,1.551-1c0.771-0.611,1.732-1.703,2.377-3.147c0.128-0.288,0.226-0.515,0.226-0.675
				c0-0.161-0.063-0.385-0.192-0.738L84.195,8.975c-0.203-0.512,0.078-0.929,0.628-0.929h1.081V8.043H85.901z"/>
		</g>
	</g>
</g>
<g>
	<path fill="#66CCFF" d="M8.615,8.363c1.252-0.2,2.882-0.313,4.603-0.313c2.86,0,4.716,0.515,6.167,1.608
		c1.563,1.162,2.548,3.017,2.548,5.676c0,2.882-1.052,4.872-2.503,6.102c-1.587,1.317-3.999,1.942-6.948,1.942
		c-1.767,0-3.018-0.11-3.864-0.224L8.615,8.363L8.615,8.363z M12.034,20.652c0.291,0.066,0.76,0.066,1.184,0.066
		c3.085,0.021,5.095-1.676,5.095-5.272c0.022-3.128-1.811-4.781-4.735-4.781c-0.761,0-1.251,0.065-1.542,0.134L12.034,20.652
		L12.034,20.652z"/>
</g>
<g opacity="0.7">
	<path fill="#66CCFF" d="M34.508,38.925l-0.078-0.684h-0.034c-0.302,0.427-0.884,0.807-1.656,0.807
		c-1.097,0-1.654-0.771-1.654-1.555c0-1.31,1.164-2.025,3.256-2.014v-0.112c0-0.448-0.124-1.253-1.231-1.253
		c-0.502,0-1.029,0.156-1.41,0.403l-0.224-0.649c0.447-0.292,1.095-0.481,1.778-0.481c1.656,0,2.059,1.131,2.059,2.216v2.024
		c0,0.472,0.023,0.93,0.088,1.298H34.508L34.508,38.925z M34.362,36.16c-1.073-0.021-2.292,0.169-2.292,1.222
		c0,0.638,0.425,0.938,0.929,0.938c0.705,0,1.152-0.447,1.308-0.906c0.034-0.1,0.056-0.21,0.056-0.313V36.16z"/>
	<path fill="#66CCFF" d="M41.578,30.981v6.547c0,0.48,0.011,1.028,0.044,1.396h-0.884l-0.044-0.938H40.67
		c-0.302,0.602-0.961,1.063-1.847,1.063c-1.307,0-2.314-1.109-2.314-2.753c-0.013-1.801,1.107-2.908,2.427-2.908
		c0.829,0,1.388,0.393,1.634,0.829h0.023v-3.233h0.984V30.981z M40.594,35.714c0-0.122-0.011-0.289-0.045-0.415
		c-0.143-0.624-0.682-1.139-1.419-1.139c-1.019,0-1.622,0.895-1.622,2.091c0,1.099,0.537,2.003,1.599,2.003
		c0.66,0,1.265-0.436,1.443-1.175c0.034-0.134,0.045-0.268,0.045-0.427V35.714z"/>
	<path fill="#66CCFF" d="M43.21,34.977c0-0.562-0.011-1.02-0.043-1.468h0.861l0.044,0.872h0.032
		c0.303-0.515,0.806-0.995,1.702-0.995c0.738,0,1.298,0.446,1.533,1.084h0.021c0.168-0.302,0.381-0.537,0.605-0.702
		c0.324-0.249,0.683-0.382,1.196-0.382c0.717,0,1.779,0.471,1.779,2.35v3.188H49.98v-3.065c0-1.041-0.379-1.668-1.175-1.668
		c-0.56,0-0.996,0.417-1.164,0.897c-0.045,0.134-0.078,0.313-0.078,0.492v3.344H46.6v-3.244c0-0.862-0.379-1.489-1.129-1.489
		c-0.615,0-1.063,0.493-1.219,0.984c-0.057,0.146-0.078,0.315-0.078,0.483v3.268H43.21V34.977z"/>
	<path fill="#66CCFF" d="M53.638,31.988c0.012,0.335-0.235,0.604-0.626,0.604c-0.348,0-0.594-0.269-0.594-0.604
		c0-0.349,0.257-0.615,0.614-0.615C53.403,31.373,53.638,31.64,53.638,31.988z M52.539,38.925v-5.414h0.985v5.414H52.539z"/>
	<path fill="#66CCFF" d="M55.157,34.977c0-0.562-0.011-1.02-0.046-1.468h0.873l0.056,0.896h0.024
		c0.268-0.513,0.896-1.018,1.79-1.018c0.748,0,1.911,0.447,1.911,2.305v3.233h-0.984v-3.122c0-0.873-0.323-1.6-1.251-1.6
		c-0.647,0-1.151,0.46-1.319,1.01c-0.046,0.122-0.068,0.289-0.068,0.458v3.254h-0.983v-3.948H55.157z"/>
	<path fill="#66CCFF" d="M62.462,31.988c0.012,0.335-0.233,0.604-0.627,0.604c-0.346,0-0.592-0.269-0.592-0.604
		c0-0.349,0.258-0.615,0.615-0.615C62.229,31.373,62.462,31.64,62.462,31.988z M61.367,38.925v-5.414h0.983v5.414H61.367z"/>
	<path fill="#66CCFF" d="M63.85,37.919c0.292,0.19,0.806,0.391,1.298,0.391c0.718,0,1.055-0.357,1.055-0.806
		c0-0.469-0.28-0.727-1.01-0.994c-0.974-0.35-1.433-0.885-1.433-1.533c0-0.875,0.707-1.591,1.87-1.591
		c0.547,0,1.029,0.156,1.332,0.335l-0.249,0.717c-0.21-0.134-0.603-0.313-1.106-0.313c-0.581,0-0.905,0.334-0.905,0.737
		c0,0.447,0.324,0.647,1.028,0.917c0.94,0.358,1.421,0.826,1.421,1.632c0,0.954-0.738,1.623-2.024,1.623
		c-0.593,0-1.143-0.144-1.522-0.369L63.85,37.919z"/>
	<path fill="#66CCFF" d="M69.599,31.954v1.557h1.413v0.749h-1.413v2.921c0,0.671,0.194,1.051,0.74,1.051
		c0.259,0,0.447-0.032,0.569-0.065l0.046,0.737c-0.193,0.08-0.494,0.133-0.873,0.133c-0.459,0-0.83-0.144-1.063-0.411
		c-0.28-0.292-0.38-0.773-0.38-1.41V34.26h-0.84v-0.749h0.84v-1.297L69.599,31.954z"/>
	<path fill="#66CCFF" d="M72.115,35.2c0-0.639-0.009-1.187-0.045-1.689h0.863l0.032,1.063h0.045
		c0.247-0.727,0.838-1.186,1.499-1.186c0.11,0,0.191,0.011,0.28,0.034v0.927c-0.102-0.023-0.204-0.032-0.337-0.032
		c-0.692,0-1.185,0.525-1.32,1.264c-0.021,0.135-0.043,0.291-0.043,0.458v2.886h-0.975V35.2z"/>
	<path fill="#66CCFF" d="M78.719,38.925l-0.078-0.684h-0.033c-0.304,0.427-0.885,0.807-1.657,0.807
		c-1.097,0-1.654-0.771-1.654-1.555c0-1.31,1.163-2.025,3.256-2.014v-0.112c0-0.448-0.122-1.253-1.231-1.253
		c-0.503,0-1.028,0.156-1.411,0.403l-0.22-0.649c0.444-0.292,1.096-0.481,1.775-0.481c1.656,0,2.059,1.131,2.059,2.216v2.024
		c0,0.472,0.022,0.93,0.087,1.298H78.719L78.719,38.925z M78.573,36.16c-1.073-0.021-2.292,0.169-2.292,1.222
		c0,0.638,0.424,0.938,0.929,0.938c0.704,0,1.15-0.447,1.308-0.906c0.034-0.1,0.056-0.21,0.056-0.313V36.16z"/>
	<path fill="#66CCFF" d="M82.253,31.954v1.557h1.409v0.749h-1.409v2.921c0,0.671,0.19,1.051,0.737,1.051
		c0.258,0,0.448-0.032,0.57-0.065l0.045,0.737c-0.19,0.08-0.491,0.133-0.873,0.133c-0.459,0-0.828-0.144-1.063-0.411
		c-0.281-0.292-0.381-0.773-0.381-1.41V34.26h-0.838v-0.749h0.838v-1.297L82.253,31.954z"/>
	<path fill="#66CCFF" d="M85.864,31.988c0.015,0.335-0.235,0.604-0.625,0.604c-0.347,0-0.594-0.269-0.594-0.604
		c0-0.349,0.259-0.615,0.615-0.615C85.629,31.373,85.864,31.64,85.864,31.988z M84.768,38.925v-5.414h0.985v5.414H84.768z"/>
	<path fill="#66CCFF" d="M92.287,36.173c0,2.001-1.385,2.875-2.694,2.875c-1.467,0-2.598-1.073-2.598-2.787
		c0-1.812,1.188-2.874,2.686-2.874C91.236,33.387,92.287,34.518,92.287,36.173z M87.993,36.23c0,1.184,0.682,2.079,1.643,2.079
		c0.943,0,1.646-0.884,1.646-2.104c0-0.917-0.459-2.08-1.623-2.08C88.496,34.125,87.993,35.2,87.993,36.23z"/>
	<path fill="#66CCFF" d="M93.528,34.977c0-0.562-0.011-1.02-0.044-1.468h0.873l0.056,0.896h0.022
		c0.267-0.513,0.896-1.018,1.791-1.018c0.748,0,1.913,0.447,1.913,2.305v3.233h-0.985v-3.122c0-0.873-0.324-1.6-1.253-1.6
		c-0.647,0-1.15,0.46-1.319,1.01c-0.046,0.122-0.068,0.289-0.068,0.458v3.254h-0.984L93.528,34.977L93.528,34.977z"/>
</g>
</svg>
