<?xml version="1.0" encoding="utf-8"?>
<!-- Generator: Adobe Illustrator 16.0.0, SVG Export Plug-In . SVG Version: 6.00 Build 0)  -->
<!DOCTYPE svg PUBLIC "-//W3C//DTD SVG 1.1//EN" "http://www.w3.org/Graphics/SVG/1.1/DTD/svg11.dtd">
<svg version="1.1"
	 id="Layer_1" xmlns:dc="http://purl.org/dc/elements/1.1/" xmlns:cc="http://creativecommons.org/ns#" xmlns:rdf="http://www.w3.org/1999/02/22-rdf-syntax-ns#" xmlns:svg="http://www.w3.org/2000/svg" xmlns:sodipodi="http://sodipodi.sourceforge.net/DTD/sodipodi-0.dtd" xmlns:inkscape="http://www.inkscape.org/namespaces/inkscape" inkscape:version="0.92.4 (5da689c313, 2019-01-14)" sodipodi:docname="croneos-logo.svg"
	 xmlns="http://www.w3.org/2000/svg" xmlns:xlink="http://www.w3.org/1999/xlink" x="0px" y="0px" width="47.374px"
	 height="47.606px" viewBox="88.168 0.394 47.374 47.606" enable-background="new 88.168 0.394 47.374 47.606" xml:space="preserve"
	>
<sodipodi:namedview  inkscape:cy="24" inkscape:cx="159.6855" inkscape:zoom="0.88924792" showgrid="false" guidetolerance="10" gridtolerance="10" objecttolerance="10" borderopacity="1" pagecolor="#ffffff" bordercolor="#666666" id="namedview23" inkscape:current-layer="g3792" inkscape:window-maximized="0" inkscape:window-y="0" inkscape:window-x="0" inkscape:window-height="480" inkscape:window-width="640" inkscape:pageshadow="2" inkscape:pageopacity="0">
	</sodipodi:namedview>
<g id="g3792">
	<g id="g3764">
		
			<sodipodi:namedview  inkscape:cy="26.245146" inkscape:cx="37.528038" inkscape:zoom="4.9119411" borderopacity="1.0" pagecolor="#ffffff" bordercolor="#666666" id="base" inkscape:window-y="0" inkscape:window-x="0" inkscape:window-height="685" inkscape:window-width="1016" inkscape:pageshadow="2" inkscape:pageopacity="0.0">
			</sodipodi:namedview>
		<path id="path705" sodipodi:nodetypes="cccccccccccccccccccccc" sodipodi:stroke-cmyk="(0 0 0 0.8)" fill="#FFFFFF" d="
			M93.316,37.615l4.326,4.531l7.002-4.738l5.563,2.473L112.061,48l5.975-0.057l1.646-8.328l5.563-2.207l7.002,4.533l3.295-4.533
			l-7.949-7.5c-20.369,18.684-36.66-11.203-19.164-23.25l-3.371-2.203l-6.385-4.061l-4.41,3.623l3.998,6.822L95.994,16.4
			l-7.803,1.297l-0.023,5.912l8.033,2.061l2.215,5.406L93.316,37.615z"/>
		<path id="path3759" opacity="0.5" fill="#FFFFFF" enable-background="new    " d="M114.947,22.045
			c-0.889,0-1.607-0.721-1.607-1.609V8.037c0-0.887,0.719-1.607,1.607-1.607c0.888,0,1.609,0.721,1.609,1.607v12.398
			C116.557,21.324,115.836,22.045,114.947,22.045z"/>
		<path id="path3761" opacity="0.5" fill="#FFFFFF" enable-background="new    " d="M124.061,27.227
			c-0.271,0-0.549-0.067-0.803-0.215l-8.555-4.941c-0.771-0.443-1.035-1.428-0.59-2.197c0.443-0.77,1.428-1.031,2.197-0.59
			l8.559,4.941c0.77,0.443,1.031,1.427,0.588,2.199C125.16,26.938,124.619,27.227,124.061,27.227z"/>
		
			<path id="path742" sodipodi:ry="2.33929610" sodipodi:cy="32.28833771" sodipodi:type="arc" sodipodi:cx="29.15122986" sodipodi:rx="2.33929610" sodipodi:stroke-cmyk="(0 0 0 0.8)" fill="#FFFFFF" d="
			M117.563,20.525c0-1.443-1.172-2.613-2.615-2.613c-1.443,0-2.611,1.172-2.611,2.613c-0.006,1.443,1.162,2.617,2.604,2.621
			c1.441,0.006,2.617-1.158,2.623-2.602C117.563,20.539,117.563,20.533,117.563,20.525h-2.615H117.563z"/>
	</g>
</g>
</svg>
