<svg xmlns="http://www.w3.org/2000/svg" width="1240" height="1240"><path d="M617 1.132c-9.4.958-22.763 4.46-31.086 8.146-6.969 3.086-453.968 262.37-463.914 269.095-10.159 6.869-27.299 24.223-34.224 34.652-6.562 9.882-11.858 20.63-15.032 30.511l-2.238 6.964-.307 269c-.226 197.589-.005 270.944.831 276.323 2.225 14.308 9.158 30.063 19.291 43.838 7.321 9.951 22.905 24.981 32.684 31.52 7.487 5.007 452.353 261.39 462.811 266.725 3.982 2.032 5.405 2.094 47.894 2.078l43.79-.016 7.586-4.234c4.172-2.329 106.899-62.509 228.282-133.734 159.484-93.581 222.684-131.164 227.86-135.5 18.953-15.878 33.463-43.736 36.722-70.507.856-7.031 1.066-78.991.809-277.493-.316-244.823-.489-268.566-1.993-274.54-5.739-22.788-16.109-41.572-31.172-56.462-4.452-4.4-11.019-9.871-14.594-12.157C1115.302 265.304 684.667 13.27 677.284 9.799c-10.119-4.758-20.239-7.412-33.415-8.765C632.582-.124 629.202-.112 617 1.132m-95 327.55c-41.26 1.159-106.825 6.686-129.75 10.938l-3.25.603v570.739l2.25.509c11.194 2.531 64.21 6.307 108.008 7.693 111.566 3.53 191.995-9.707 257.016-42.301 61.176-30.667 104.099-80.145 127.485-146.953 25.449-72.702 25.345-167.519-.257-234.952-24.197-63.733-75.004-113.574-143.002-140.281-53.942-21.186-118.077-28.817-218.5-25.995m29.5 101.949c-6.294.495-26.417 3.279-28.75 3.979-1.659.497-1.75 10.406-1.75 189.841v189.316l2.75.714c1.513.392 16.048.938 32.302 1.213 23.058.39 32.551.153 43.205-1.076 35.223-4.064 63.084-13.524 87.815-29.817 12.272-8.086 32.208-27.911 40.761-40.536 22.852-33.732 34.127-76.901 34.156-130.771.022-40.159-6.367-70.798-20.539-98.505-22.877-44.724-61.982-71.683-118.45-81.66-12.662-2.237-17.796-2.595-40.5-2.826-14.3-.145-28.25-.088-31 .128" fill="undefined" fill-rule="evenodd"/></svg>