<?xml version="1.0" encoding="UTF-8" standalone="no"?>
<!-- Generator: Adobe Illustrator 16.0.0, SVG Export Plug-In . SVG Version: 6.00 Build 0)  -->

<svg
   xmlns:dc="http://purl.org/dc/elements/1.1/"
   xmlns:cc="http://creativecommons.org/ns#"
   xmlns:rdf="http://www.w3.org/1999/02/22-rdf-syntax-ns#"
   xmlns:svg="http://www.w3.org/2000/svg"
   xmlns="http://www.w3.org/2000/svg"
   xmlns:sodipodi="http://sodipodi.sourceforge.net/DTD/sodipodi-0.dtd"
   xmlns:inkscape="http://www.inkscape.org/namespaces/inkscape"
   version="1.1"
   id="Layer_1"
   x="0px"
   y="0px"
   width="319.371px"
   height="48px"
   viewBox="0 0 319.371 48"
   style="enable-background:new 0 0 319.371 48;"
   xml:space="preserve"
   sodipodi:docname="croneos-logo.svg"
   inkscape:version="0.92.4 (5da689c313, 2019-01-14)"><metadata
   id="metadata27"><rdf:RDF><cc:Work
       rdf:about=""><dc:format>image/svg+xml</dc:format><dc:type
         rdf:resource="http://purl.org/dc/dcmitype/StillImage" /><dc:title></dc:title></cc:Work></rdf:RDF></metadata><defs
   id="defs25" /><sodipodi:namedview
   pagecolor="#ffffff"
   bordercolor="#666666"
   borderopacity="1"
   objecttolerance="10"
   gridtolerance="10"
   guidetolerance="10"
   inkscape:pageopacity="0"
   inkscape:pageshadow="2"
   inkscape:window-width="640"
   inkscape:window-height="480"
   id="namedview23"
   showgrid="false"
   inkscape:zoom="0.88924792"
   inkscape:cx="159.6855"
   inkscape:cy="24"
   inkscape:window-x="0"
   inkscape:window-y="0"
   inkscape:window-maximized="0"
   inkscape:current-layer="g3792" />
<g
   id="g3792">
	<g
   id="g3764">
		
			<sodipodi:namedview
   id="base"
   inkscape:cx="37.528038"
   inkscape:zoom="4.9119411"
   pagecolor="#ffffff"
   inkscape:cy="26.245146"
   bordercolor="#666666"
   borderopacity="1.0"
   inkscape:window-y="0"
   inkscape:window-x="0"
   inkscape:window-height="685"
   inkscape:window-width="1016"
   inkscape:pageshadow="2"
   inkscape:pageopacity="0.0">
			</sodipodi:namedview>
		<path
   id="path705"
   sodipodi:stroke-cmyk="(0 0 0 0.8)"
   sodipodi:nodetypes="cccccccccccccccccccccc"
   style="fill:#FFFFFF;"
   d="    M93.316,37.615l4.326,4.531l7.002-4.738l5.563,2.473L112.061,48l5.975-0.057l1.646-8.328l5.563-2.207l7.002,4.533l3.295-4.533    l-7.949-7.5c-20.369,18.684-36.66-11.203-19.164-23.25l-3.371-2.203l-6.385-4.061l-4.41,3.623l3.998,6.822L95.994,16.4    l-7.803,1.297l-0.023,5.912l8.033,2.061l2.215,5.406L93.316,37.615z" />
		<path
   id="path3759"
   style="opacity:0.5;fill:#FFFFFF;enable-background:new    ;"
   d="M114.947,22.045    c-0.889,0-1.607-0.721-1.607-1.609V8.037c0-0.887,0.719-1.607,1.607-1.607s1.609,0.721,1.609,1.607v12.398    C116.557,21.324,115.836,22.045,114.947,22.045z" />
		<path
   id="path3761"
   style="opacity:0.5;fill:#FFFFFF;enable-background:new    ;"
   d="M124.061,27.227    c-0.271,0-0.549-0.068-0.803-0.215l-8.555-4.941c-0.771-0.443-1.035-1.428-0.59-2.197c0.443-0.77,1.428-1.031,2.197-0.59    l8.559,4.941c0.77,0.443,1.031,1.428,0.588,2.199C125.16,26.938,124.619,27.227,124.061,27.227z" />
		
			<path
   id="path742"
   sodipodi:rx="2.33929610"
   sodipodi:cx="29.15122986"
   sodipodi:type="arc"
   sodipodi:cy="32.28833771"
   sodipodi:ry="2.33929610"
   sodipodi:stroke-cmyk="(0 0 0 0.8)"
   style="fill:#FFFFFF;"
   d="    M117.563,20.525c0-1.443-1.172-2.613-2.615-2.613s-2.611,1.172-2.611,2.613c-0.006,1.443,1.162,2.617,2.604,2.621    c1.441,0.006,2.617-1.158,2.623-2.602C117.563,20.539,117.563,20.533,117.563,20.525h-2.615H117.563z" />
	</g>
	<g
   id="g3790">
		<g
   id="g3778">
			<g
   id="g3768">
				<path
   id="path3766"
   style="fill:#3399FF;"
   d="M39.699,45.611c-2.113,0.959-6.867,1.986-13.057,1.986      C9.057,47.598,0,37.668,0,24.518C0,8.768,12.377,0,27.771,0c5.963,0,10.492,1.096,12.529,2.055l-1.805,6.393      c-0.293,1.043-1.383,1.635-2.416,1.318c0,0-3.703-1.135-7.779-1.135c-9.133,0-16.227,4.998-16.227,15.271      c0,9.244,6.037,15.066,16.303,15.066c3.471,0,7.674-1.035,7.674-1.035c1.051-0.26,2.094,0.395,2.32,1.455L39.699,45.611z" />
			</g>
			<g
   id="g3772">
				<path
   id="path3770"
   style="fill:#3399FF;"
   d="M47.244,1.369c3.697-0.549,9.207-0.959,15.32-0.959      c7.547,0,12.83,1.027,16.453,3.631c3.02,2.189,4.68,5.41,4.68,9.656c0,5.891-4.604,9.93-8.98,11.367l0,0      c0,0.113,0.693,0.758,1.541,1.43c0,0,3.967,3.16,5.252,7.406c1.584,5.203,3.17,11.23,4.15,13.012h-9.805      c-1.084,0-2.299-0.822-2.703-1.824c0,0-1.303-3.242-2.813-8.928c-1.359-5.754-3.547-7.328-8.227-7.396h-1.504      c-1.082,0-1.969,0.885-1.969,1.969v14.213c0,1.082-0.885,1.967-1.967,1.967h-7.461c-1.082,0-1.967-0.885-1.967-1.967      L47.244,1.369L47.244,1.369z M58.641,19.262c0,1.082,0.887,1.969,1.969,1.969h0.592c1.082,0,2.82-0.242,3.861-0.539      c0,0,7.238-2.063,7.238-6.104c0-4.246-3.168-6.367-8.453-6.438c-2.791,0-3.258,0.066-3.258,0.066      c-1.072,0.152-1.949,1.162-1.949,2.246V19.262z" />
			</g>
			<g
   id="g3776">
				<path
   id="path3774"
   style="fill:#3399FF;"
   d="M142.855,46.912c-1.084,0-1.969-0.887-1.969-1.969V2.721      c0-1.082,0.885-1.967,1.969-1.967h9.496c1.084,0,2.439,0.75,3.012,1.668l8.48,13.576c0.574,0.92,1.48,2.439,2.016,3.381      c0,0,5.064,8.904,7.328,14.109l0,0c0.125,0,0.156-0.883,0.072-1.963c0,0-0.824-10.363-0.824-17.281V2.723      c0-1.084,0.885-1.969,1.967-1.969h6.629c1.082,0,1.969,0.885,1.969,1.969v42.221c0,1.084-0.887,1.971-1.969,1.971h-8.139      c-1.082,0-2.428-0.758-2.994-1.682l-8.814-14.445c-0.564-0.926-1.473-2.445-2.018-3.383c0,0-5.35-9.188-7.84-14.598l0,0      c-0.125,0.039-0.193,0.955-0.156,2.037c0,0,0.383,10.633,0.383,18.166v11.936c0,1.082-0.887,1.969-1.969,1.969h-6.629V46.912      L142.855,46.912z" />
			</g>
		</g>
		<g
   id="g3782"
   style="opacity:0.8;">
			<path
   id="path3780"
   style="fill:#FFFFFF;"
   d="M222.24,25.451c0,1.082-0.887,1.969-1.969,1.969h-14.777     c-1.084,0-1.971,0.885-1.971,1.967v7.023c0,1.082,0.887,1.969,1.971,1.969h16.967c1.082,0,1.971,0.885,1.971,1.967v4.625     c0,1.082-0.889,1.969-1.971,1.969h-28.518c-1.082,0-1.967-0.887-1.967-1.969V2.748c0-1.082,0.885-1.969,1.967-1.969h27.461     c1.084,0,1.971,0.887,1.971,1.969v4.623c0,1.082-0.887,1.969-1.971,1.969h-15.91c-1.084,0-1.971,0.885-1.971,1.967v5.652     c0,1.082,0.887,1.969,1.971,1.969h14.777c1.082,0,1.969,0.885,1.969,1.969V25.451z" />
		</g>
		<path
   id="path3784"
   style="opacity:0.8;fill:#FFFFFF;enable-background:new    ;"
   d="M278.844,23.381    c0,15.135-10.115,24.313-24.982,24.313c-15.094,0-23.922-10.342-23.922-23.492c0-13.834,9.734-24.176,24.754-24.176    C270.314,0.025,278.844,10.641,278.844,23.381z M242.09,23.994c0,9.041,4.678,15.41,12.377,15.41    c7.771,0,12.225-6.711,12.225-15.684c0-8.285-4.377-15.41-12.301-15.41C246.617,8.313,242.09,15.023,242.09,23.994z" />
		<g
   id="g3788"
   style="opacity:0.8;">
			<path
   id="path3786"
   style="fill:#FFFFFF;"
   d="M286.766,36.186c3.096,1.439,7.852,2.879,12.756,2.879c5.283,0,8.076-1.988,8.076-5     c0-2.879-2.416-4.52-8.529-6.508c-8.453-2.67-13.961-6.916-13.961-13.627c0-7.877,7.244-13.904,19.244-13.904     c5.734,0,9.963,1.096,12.982,2.33l-1.992,6.539c-0.316,1.037-1.4,1.563-2.41,1.172c0,0-3.824-1.479-8.807-1.479     c-4.98,0-7.396,2.053-7.396,4.451c0,2.943,2.869,4.246,9.436,6.504c8.98,3.016,13.207,7.262,13.207,13.766     c0,7.74-6.566,14.314-20.529,14.314c-5.813,0-12.543-2.195-12.543-2.195c-1.029-0.336-1.639-1.467-1.355-2.512L286.766,36.186z" />
		</g>
	</g>
</g>
</svg>