<?xml version="1.0" encoding="utf-8"?>
<!-- Generator: Adobe Illustrator 16.0.0, SVG Export Plug-In . SVG Version: 6.00 Build 0)  -->
<!DOCTYPE svg PUBLIC "-//W3C//DTD SVG 1.1//EN" "http://www.w3.org/Graphics/SVG/1.1/DTD/svg11.dtd">
<svg version="1.1" id="Layer_1" xmlns="http://www.w3.org/2000/svg" xmlns:xlink="http://www.w3.org/1999/xlink" x="0px" y="0px"
	 width="38.27px" height="38.27px" viewBox="0 0 38.27 38.27" enable-background="new 0 0 38.27 38.27" xml:space="preserve">
<g>
	<path fill="none" stroke="#66CCFF" stroke-width="3" stroke-miterlimit="10" d="M34.635,27.083c0,0.562-0.547,1.254-1.032,1.538
		l-13.634,7.936c-0.485,0.284-1.315,0.284-1.8,0L4.563,28.621c-0.483-0.284-0.928-0.977-0.928-1.538V11.187
		c0-0.562,0.424-1.254,0.909-1.538l13.573-7.936c0.484-0.284,1.284-0.284,1.77,0L33.6,9.649c0.485,0.284,1.035,0.977,1.035,1.538
		V27.083z"/>
</g>
<g>
	<path fill="#66CCFF" d="M11.502,10.439c1.479-0.236,3.403-0.369,5.436-0.369c3.379,0,5.568,0.607,7.284,1.9
		c1.847,1.372,3.007,3.563,3.007,6.703c0,3.404-1.24,5.753-2.955,7.203c-1.873,1.558-4.723,2.296-8.205,2.296
		c-2.086,0-3.563-0.132-4.565-0.264L11.502,10.439L11.502,10.439z M15.539,24.953c0.344,0.08,0.897,0.08,1.397,0.08
		c3.644,0.025,6.018-1.98,6.018-6.229c0.025-3.694-2.139-5.646-5.596-5.646c-0.896,0-1.477,0.078-1.819,0.157V24.953z"/>
</g>
</svg>
