<?xml version="1.0" encoding="utf-8"?>
<!-- Generator: Adobe Illustrator 16.0.0, SVG Export Plug-In . SVG Version: 6.00 Build 0)  -->
<!DOCTYPE svg PUBLIC "-//W3C//DTD SVG 1.1//EN" "http://www.w3.org/Graphics/SVG/1.1/DTD/svg11.dtd">
<svg version="1.1" id="Layer_1" xmlns="http://www.w3.org/2000/svg" xmlns:xlink="http://www.w3.org/1999/xlink" x="0px" y="0px"
	 width="115.422px" height="38.268px" viewBox="0 0 115.422 38.268" enable-background="new 0 0 115.422 38.268"
	 xml:space="preserve">
<g>
	<path fill="#66CCFF" d="M33,27.083c0,0.562-0.63,1.254-1.115,1.538l-13.674,7.935c-0.486,0.284-1.337,0.284-1.822,0L2.855,28.62
		C2.37,28.336,2,27.645,2,27.083V11.187c0-0.562,0.342-1.254,0.826-1.538l13.531-7.936c0.485-0.284,1.265-0.284,1.75,0l13.784,7.936
		C32.377,9.933,33,10.625,33,11.187V27.083z"/>
	<path fill="none" stroke="#66CCFF" stroke-width="3" stroke-miterlimit="10" d="M32.5,27.083c0,0.562-0.38,1.254-0.865,1.538
		l-13.549,7.935c-0.486,0.284-1.274,0.284-1.76,0L2.574,28.62C2.089,28.336,1.5,27.645,1.5,27.083V11.187
		c0-0.562,0.592-1.254,1.076-1.538l13.656-7.936c0.485-0.284,1.327-0.284,1.813,0L31.61,9.649c0.485,0.284,0.89,0.977,0.89,1.538
		V27.083z"/>
</g>
<g>
	<g>
		<g>
			<path fill="#66CCFF" d="M49.279,28.42c-0.65,0-1.241-0.521-1.314-1.157c-0.072-0.636-0.158-1.157-0.189-1.157
				c-0.031,0-0.449,0.358-0.93,0.795c0,0-2.123,1.937-4.741,1.937c-3.718,0-5.614-2.618-5.614-5.273
				c0-4.438,3.945-6.864,11.039-6.828l0,0c0-0.208-0.052-0.906-0.115-1.554c0,0-0.303-3.074-4.058-3.074
				c-1.706,0-3.489,0.531-4.78,1.366l-0.373-1.083c-0.211-0.614,0.102-1.33,0.697-1.591c0,0,2.635-1.156,4.949-1.156
				c5.614,0,6.979,3.831,6.979,7.51v5.686c0,0.649,0.013,1.712,0.028,2.362l0.148,2.045c0.069,0.646-0.404,1.174-1.055,1.174H49.279
				z M47.604,19.051c-3.642-0.076-7.776,0.569-7.776,4.134c0,2.163,1.442,3.188,3.148,3.188c2.391,0,3.907-1.518,4.438-3.072
				c0.114-0.341,0.114-0.341,0.114-0.341c0.041-0.396,0.075-1.252,0.075-1.902L47.604,19.051L47.604,19.051z"/>
		</g>
		<g>
			<path fill="#66CCFF" d="M68.123,27.737c-0.871,0.455-2.807,1.063-5.271,1.063c-5.539,0-9.143-3.756-9.143-9.369
				c0-5.652,3.869-9.749,9.863-9.749c1.972,0,3.717,0.493,4.627,0.949l-0.426,1.447c-0.185,0.623-0.822,0.924-1.42,0.67
				c0,0-0.961-0.41-2.781-0.41c-4.211,0-6.487,3.109-6.487,6.94c0,4.248,2.731,6.865,6.372,6.865c1.896,0,3.006-0.458,3.006-0.458
				c0.602-0.249,1.209,0.066,1.354,0.7L68.123,27.737z"/>
		</g>
		<g opacity="0.8">
			<path fill="#66CCFF" d="M72.033,2.669c0-0.65,0.531-1.182,1.181-1.182h0.976c0.649,0,1.182,0.531,1.182,1.182v24.569
				c0,0.65-0.531,1.182-1.182,1.182h-0.976c-0.649,0-1.181-0.531-1.181-1.182V2.669z"/>
		</g>
		<g opacity="0.8">
			<path fill="#66CCFF" d="M84.703,4.902C84.74,6.04,83.906,6.95,82.578,6.95c-1.176,0-2.01-0.91-2.01-2.049
				c0-1.176,0.873-2.086,2.086-2.086C83.906,2.816,84.703,3.726,84.703,4.902z M82.167,28.42c-0.649,0-1.181-0.531-1.181-1.182
				V11.242c0-0.65,0.531-1.182,1.181-1.182h0.976c0.649,0,1.182,0.531,1.182,1.182v15.996c0,0.65-0.531,1.182-1.182,1.182H82.167
				L82.167,28.42z"/>
		</g>
		<g opacity="0.8">
			<path fill="#66CCFF" d="M91.385,28.42c-0.65,0-1.182-0.531-1.182-1.182V13.783c0-0.65-0.531-1.182-1.182-1.182h-0.217
				c-0.65,0-1.182-0.531-1.182-1.181v-0.179c0-0.65,0.531-1.182,1.182-1.182h0.217c0.649,0,1.182-0.196,1.182-0.436
				c0-0.24,0.063-0.964,0.136-1.61c0,0,0.435-3.758,1.989-5.237c1.252-1.214,2.92-1.707,4.477-1.707
				c1.176,0,2.199,0.266,2.844,0.531l-0.25,1.417c-0.112,0.641-0.705,0.985-1.317,0.769c0,0-0.063-0.022-1.011-0.022
				c-2.846,0-3.565,2.503-3.565,5.312l0,0c0,0.542,0.531,0.985,1.183,0.985h2.076c0.648,0,1.18,0.531,1.18,1.182v0.179
				c0,0.649-0.53,1.181-1.18,1.181h-2.076c-0.65,0-1.183,0.531-1.183,1.182V27.24c0,0.65-0.53,1.182-1.181,1.182L91.385,28.42
				L91.385,28.42z"/>
		</g>
		<g opacity="0.8">
			<path fill="#66CCFF" d="M100.973,10.061c0.65,0,1.365,0.499,1.592,1.107l3.199,8.633c0.228,0.609,0.576,1.612,0.779,2.229
				c0,0,0.503,1.533,0.809,2.634l0,0c0.041,0,0.221-0.512,0.4-1.136c0,0,0.395-1.368,0.85-2.695l3.265-9.654
				c0.206-0.615,0.907-1.119,1.559-1.119h1.166c0.649,0,0.99,0.497,0.759,1.104l-4.162,10.88c-0.231,0.605-0.629,1.593-0.881,2.19
				c0,0-3.563,8.435-5.839,10.406c-1.63,1.441-3.262,2.011-4.096,2.162l-0.498-1.675c-0.187-0.623,0.153-1.334,0.755-1.582
				c0,0,0.844-0.348,1.829-1.182c0.91-0.721,2.049-2.01,2.808-3.717c0.151-0.341,0.266-0.606,0.266-0.797
				c0-0.188-0.076-0.455-0.229-0.873l-6.351-15.821c-0.242-0.603,0.092-1.096,0.741-1.096h1.279V10.061z"/>
		</g>
	</g>
</g>
<g>
	<path fill="#FFFFFF" d="M9.701,10.438c1.479-0.236,3.404-0.369,5.436-0.369c3.379,0,5.568,0.607,7.284,1.9
		c1.847,1.372,3.007,3.562,3.007,6.703c0,3.404-1.24,5.753-2.955,7.203c-1.873,1.558-4.723,2.296-8.205,2.296
		c-2.086,0-3.563-0.132-4.566-0.264L9.701,10.438L9.701,10.438z M13.738,24.953c0.344,0.08,0.898,0.08,1.398,0.08
		c3.643,0.025,6.017-1.98,6.017-6.229c0.026-3.694-2.138-5.646-5.595-5.646c-0.896,0-1.477,0.078-1.82,0.157V24.953z"/>
</g>
</svg>
