<?xml version="1.0" encoding="utf-8"?>
<!-- Generator: Adobe Illustrator 16.0.0, SVG Export Plug-In . SVG Version: 6.00 Build 0)  -->
<!DOCTYPE svg PUBLIC "-//W3C//DTD SVG 1.1//EN" "http://www.w3.org/Graphics/SVG/1.1/DTD/svg11.dtd">
<svg version="1.1" id="Layer_1" xmlns="http://www.w3.org/2000/svg" xmlns:xlink="http://www.w3.org/1999/xlink" x="0px" y="0px"
	 width="98.137px" height="32.863px" viewBox="0 0 98.137 32.863" enable-background="new 0 0 98.137 32.863" xml:space="preserve">
<g>
	<path fill="none" stroke="#66CCFF" stroke-width="3" stroke-miterlimit="10" d="M27.5,23.163c0,0.476-0.111,1.062-0.521,1.302
		L15.61,31.184c-0.411,0.24-1.027,0.24-1.438,0l-11.702-6.72c-0.411-0.24-0.97-0.826-0.97-1.301V9.702
		C1.5,9.226,2.086,8.64,2.497,8.4l11.606-6.72c0.411-0.24,1.145-0.24,1.556,0L26.946,8.4C27.357,8.64,27.5,9.226,27.5,9.702V23.163z
		"/>
</g>
<g>
	<g>
		<g>
			<path fill="#66CCFF" d="M42.128,24.295c-0.55,0-1.051-0.441-1.111-0.979c-0.063-0.539-0.135-0.979-0.16-0.979
				c-0.027,0-0.381,0.303-0.788,0.674c0,0-1.798,1.639-4.015,1.639c-3.148,0-4.755-2.216-4.755-4.465
				c0-3.758,3.342-5.813,9.348-5.782l0,0c0-0.176-0.044-0.769-0.099-1.315c0,0-0.256-2.604-3.436-2.604
				c-1.445,0-2.955,0.45-4.047,1.156l-0.316-0.917c-0.179-0.52,0.086-1.126,0.59-1.347c0,0,2.232-0.979,4.191-0.979
				c4.754,0,5.91,3.244,5.91,6.36v4.813c0,0.551,0.011,1.45,0.023,2l0.125,1.732c0.06,0.547-0.343,0.994-0.893,0.994H42.128z
				 M40.71,16.361c-3.083-0.063-6.584,0.482-6.584,3.501c0,1.831,1.222,2.698,2.666,2.698c2.023,0,3.309-1.285,3.758-2.602
				c0.098-0.289,0.098-0.289,0.098-0.289c0.035-0.336,0.063-1.062,0.063-1.61L40.71,16.361L40.71,16.361z"/>
		</g>
		<g>
			<path fill="#66CCFF" d="M58.085,23.717c-0.738,0.385-2.377,0.899-4.465,0.899c-4.688,0-7.741-3.181-7.741-7.935
				c0-4.786,3.276-8.255,8.352-8.255c1.67,0,3.146,0.417,3.918,0.803l-0.36,1.226c-0.155,0.527-0.696,0.782-1.202,0.566
				c0,0-0.813-0.347-2.355-0.347c-3.565,0-5.493,2.634-5.493,5.878c0,3.597,2.313,5.813,5.396,5.813c1.606,0,2.546-0.39,2.546-0.39
				c0.508-0.21,1.022,0.058,1.146,0.593L58.085,23.717z"/>
		</g>
		<g opacity="0.8">
			<path fill="#66CCFF" d="M61.396,2.49c0-0.55,0.45-1,1-1h0.826c0.55,0,1,0.45,1,1v20.806c0,0.55-0.45,1-1,1h-0.826
				c-0.55,0-1-0.45-1-1V2.49z"/>
		</g>
		<g opacity="0.8">
			<path fill="#66CCFF" d="M72.124,4.381c0.032,0.963-0.674,1.733-1.799,1.733c-0.995,0-1.702-0.771-1.702-1.733
				c0-0.996,0.739-1.768,1.768-1.768C71.45,2.614,72.124,3.385,72.124,4.381z M69.977,24.295c-0.55,0-1-0.45-1-1V9.749
				c0-0.55,0.45-1,1-1h0.826c0.55,0,1,0.45,1,1v13.546c0,0.55-0.45,1-1,1H69.977L69.977,24.295z"/>
		</g>
		<g opacity="0.8">
			<path fill="#66CCFF" d="M77.782,24.295c-0.55,0-1-0.45-1-1V11.901c0-0.55-0.45-1-1-1h-0.185c-0.551,0-1-0.449-1-1V9.749
				c0-0.55,0.449-1,1-1h0.185c0.55,0,1-0.166,1-0.369c0-0.204,0.052-0.817,0.114-1.363c0,0,0.367-3.182,1.685-4.435
				c1.061-1.028,2.474-1.445,3.79-1.445c0.996,0,1.863,0.225,2.409,0.45l-0.212,1.199c-0.096,0.542-0.598,0.834-1.116,0.649
				c0,0-0.053-0.019-0.855-0.019c-2.409,0-3.02,2.12-3.02,4.497l0,0c0,0.459,0.45,0.835,1,0.835h1.758c0.55,0,1,0.45,1,1v0.151
				c0,0.551-0.45,1-1,1h-1.758c-0.55,0-1,0.45-1,1v11.395c0,0.55-0.45,1-1,1H77.782z"/>
		</g>
		<g opacity="0.8">
			<path fill="#66CCFF" d="M85.901,8.749c0.55,0,1.156,0.422,1.348,0.938l2.709,7.312c0.191,0.516,0.488,1.364,0.659,1.888
				c0,0,0.427,1.298,0.685,2.23l0,0c0.035,0,0.188-0.434,0.341-0.962c0,0,0.334-1.158,0.72-2.282l2.763-8.176
				c0.176-0.521,0.771-0.946,1.32-0.946h0.987c0.55,0,0.839,0.42,0.643,0.934l-3.524,9.213c-0.195,0.515-0.531,1.35-0.745,1.855
				c0,0-3.018,7.141-4.943,8.811c-1.381,1.222-2.763,1.703-3.469,1.831l-0.422-1.418c-0.157-0.526,0.131-1.13,0.64-1.339
				c0,0,0.713-0.294,1.549-1c0.771-0.61,1.734-1.702,2.377-3.147c0.128-0.288,0.226-0.514,0.226-0.675s-0.064-0.385-0.193-0.738
				l-5.38-13.399c-0.204-0.511,0.078-0.928,0.628-0.928H85.901z"/>
		</g>
	</g>
</g>
<g>
	<path fill="#66CCFF" d="M8.615,9.069c1.252-0.2,2.882-0.313,4.603-0.313c2.86,0,4.716,0.514,6.167,1.608
		c1.563,1.162,2.548,3.017,2.548,5.676c0,2.882-1.052,4.872-2.503,6.1c-1.587,1.319-3.999,1.944-6.948,1.944
		c-1.767,0-3.018-0.111-3.866-0.224V9.069z M12.034,21.359c0.291,0.067,0.76,0.067,1.184,0.067c3.085,0.021,5.095-1.676,5.095-5.273
		c0.022-3.128-1.811-4.781-4.737-4.781c-0.759,0-1.251,0.065-1.542,0.134L12.034,21.359L12.034,21.359z"/>
</g>
</svg>
