<?xml version="1.0" encoding="utf-8"?>
<!-- Generator: Adobe Illustrator 16.0.0, SVG Export Plug-In . SVG Version: 6.00 Build 0)  -->
<!DOCTYPE svg PUBLIC "-//W3C//DTD SVG 1.1//EN" "http://www.w3.org/Graphics/SVG/1.1/DTD/svg11.dtd">
<svg version="1.1" id="Layer_1" xmlns="http://www.w3.org/2000/svg" xmlns:xlink="http://www.w3.org/1999/xlink" x="0px" y="0px"
	 width="38.27px" height="38.27px" viewBox="0 0 38.27 38.27" enable-background="new 0 0 38.27 38.27" xml:space="preserve">
<g>
	<path fill="#66CCFF" d="M35.135,27.083c0,0.563-0.586,1.254-1.071,1.538l-13.651,7.937c-0.485,0.283-1.325,0.283-1.813,0
		L5.029,28.62c-0.484-0.284-0.895-0.976-0.895-1.538V11.187c0-0.563,0.385-1.254,0.871-1.538l13.553-7.937
		c0.485-0.283,1.275-0.283,1.761,0l13.745,7.937c0.485,0.284,1.07,0.976,1.07,1.538L35.135,27.083L35.135,27.083z"/>
	<path fill="none" stroke="#66CCFF" stroke-width="3" stroke-miterlimit="10" d="M34.635,27.083c0,0.563-0.336,1.254-0.821,1.538
		l-13.526,7.937c-0.485,0.283-1.264,0.283-1.749,0L4.748,28.62c-0.485-0.284-1.113-0.976-1.113-1.538V11.187
		c0-0.563,0.635-1.254,1.121-1.538l13.678-7.937c0.485-0.283,1.338-0.283,1.823,0l13.526,7.937c0.484,0.284,0.852,0.976,0.852,1.538
		V27.083L34.635,27.083z"/>
</g>
<g>
	<path fill="#FFFFFF" d="M11.924,10.438c1.479-0.237,3.404-0.369,5.436-0.369c3.379,0,5.568,0.606,7.284,1.9
		c1.848,1.371,3.007,3.562,3.007,6.702c0,3.404-1.239,5.753-2.955,7.203c-1.873,1.559-4.723,2.296-8.204,2.296
		c-2.087,0-3.563-0.132-4.566-0.264L11.924,10.438L11.924,10.438z M15.961,24.953c0.344,0.08,0.897,0.08,1.397,0.08
		c3.644,0.026,6.018-1.979,6.018-6.228c0.025-3.694-2.139-5.647-5.596-5.647c-0.896,0-1.477,0.079-1.819,0.158V24.953z"/>
</g>
</svg>
