<?xml version="1.0" encoding="utf-8"?>
<!-- Generator: Adobe Illustrator 16.0.0, SVG Export Plug-In . SVG Version: 6.00 Build 0)  -->
<!DOCTYPE svg PUBLIC "-//W3C//DTD SVG 1.1//EN" "http://www.w3.org/Graphics/SVG/1.1/DTD/svg11.dtd">
<svg version="1.1" id="Layer_1" xmlns="http://www.w3.org/2000/svg" xmlns:xlink="http://www.w3.org/1999/xlink" x="0px" y="0px"
	 width="199.795px" height="25.378px" viewBox="0 0 199.795 25.378" style="enable-background:new 0 0 199.795 25.378;"
	 xml:space="preserve">
<g>
	<path style="fill:#FFFFFF;" d="M14.622,14.585H5.58v5.834h10.1v4.557H0V0.401h15.169v4.558H5.58v5.105h9.042V14.585z"/>
	<path style="fill:#FFFFFF;" d="M41.971,12.434c0,8.058-4.886,12.944-12.069,12.944c-7.292,0-11.559-5.506-11.559-12.507
		C18.342,5.506,23.046,0,30.303,0C37.851,0,41.971,5.651,41.971,12.434z M24.213,12.762c0,4.812,2.261,8.204,5.98,8.204
		c3.755,0,5.907-3.574,5.907-8.35c0-4.412-2.114-8.205-5.943-8.205C26.401,4.412,24.213,7.985,24.213,12.762z"/>
	<path style="fill:#FFFFFF;" d="M45.801,19.251c1.495,0.768,3.792,1.533,6.163,1.533c2.552,0,3.901-1.059,3.901-2.664
		c0-1.529-1.167-2.406-4.12-3.463c-4.084-1.421-6.746-3.682-6.746-7.256C44.999,3.208,48.5,0,54.297,0
		c2.771,0,4.813,0.583,6.271,1.239l-1.24,4.485c-0.984-0.474-2.735-1.167-5.142-1.167c-2.406,0-3.573,1.094-3.573,2.371
		c0,1.568,1.386,2.26,4.558,3.463c4.339,1.604,6.381,3.866,6.381,7.329c0,4.121-3.172,7.621-9.917,7.621
		c-2.808,0-5.58-0.729-6.965-1.494L45.801,19.251z"/>
	<path style="fill:#FFFFFF;" d="M85.84,23.847c-1.713,0.584-4.959,1.385-8.204,1.385c-4.485,0-7.731-1.131-9.992-3.318
		c-2.261-2.113-3.5-5.322-3.464-8.933c0.036-8.168,5.98-12.835,14.039-12.835c3.172,0,5.616,0.62,6.819,1.203l-1.167,4.449
		c-1.35-0.583-3.027-1.057-5.725-1.057c-4.631,0-8.131,2.625-8.131,7.949c0,5.068,3.172,8.059,7.73,8.059
		c1.276,0,2.297-0.146,2.734-0.365v-5.141h-3.792v-4.339h9.153V23.847z"/>
	<path style="fill:#FFFFFF;" d="M90.18,0.729c1.787-0.292,4.449-0.511,7.402-0.511c3.647,0,6.199,0.547,7.949,1.933
		c1.459,1.167,2.262,2.881,2.262,5.142c0,3.136-2.226,5.287-4.341,6.053v0.109c1.715,0.693,2.662,2.332,3.283,4.594
		c0.765,2.771,1.529,5.98,2.005,6.928h-5.689c-0.401-0.691-0.983-2.697-1.714-5.725c-0.655-3.063-1.713-3.9-3.974-3.938h-1.678
		v9.662H90.18V0.729z M95.686,11.304h2.188c2.771,0,4.412-1.386,4.412-3.537c0-2.261-1.532-3.392-4.084-3.428
		c-1.35,0-2.115,0.109-2.517,0.182V11.304z"/>
	<path style="fill:#FFFFFF;" d="M134.156,12.434c0,8.058-4.887,12.944-12.07,12.944c-7.291,0-11.558-5.506-11.558-12.507
		C110.528,5.506,115.231,0,122.489,0C130.036,0,134.156,5.651,134.156,12.434z M116.398,12.762c0,4.812,2.261,8.204,5.98,8.204
		c3.756,0,5.906-3.574,5.906-8.35c0-4.412-2.114-8.205-5.943-8.205C118.586,4.412,116.398,7.985,116.398,12.762z"/>
	<path style="fill:#FFFFFF;" d="M143.346,0.401v14.147c0,4.229,1.604,6.383,4.449,6.383c2.918,0,4.522-2.043,4.522-6.383V0.401
		h5.541v13.783c0,7.583-3.829,11.194-10.246,11.194c-6.198,0-9.845-3.428-9.845-11.268V0.401H143.346z"/>
	<path style="fill:#FFFFFF;" d="M162.674,0.729c1.714-0.292,4.12-0.511,7.512-0.511c3.427,0,5.872,0.656,7.512,1.969
		c1.568,1.24,2.626,3.282,2.626,5.688c0,2.406-0.803,4.448-2.261,5.834c-1.898,1.785-4.705,2.588-7.985,2.588
		c-0.73,0-1.388-0.035-1.896-0.109v8.787h-5.507V0.729z M168.181,11.887c0.474,0.109,1.058,0.146,1.859,0.146
		c2.954,0,4.775-1.495,4.775-4.011c0-2.26-1.566-3.61-4.338-3.61c-1.131,0-1.896,0.109-2.297,0.219V11.887z"/>
	<path style="fill:#FFFFFF;" d="M184.043,19.251c1.494,0.768,3.791,1.533,6.161,1.533c2.553,0,3.901-1.059,3.901-2.664
		c0-1.529-1.167-2.406-4.12-3.463c-4.083-1.421-6.744-3.682-6.744-7.256c0-4.193,3.5-7.402,9.296-7.402
		c2.772,0,4.813,0.583,6.271,1.239l-1.238,4.485c-0.984-0.474-2.734-1.167-5.141-1.167s-3.574,1.094-3.574,2.371
		c0,1.568,1.386,2.26,4.558,3.463c4.338,1.604,6.382,3.866,6.382,7.329c0,4.121-3.173,7.621-9.919,7.621
		c-2.809,0-5.578-0.729-6.965-1.494L184.043,19.251z"/>
</g>
</svg>
